PathFileType	4	(X/Y/Z)	C:/Users/opensim2020/Desktop/walking_exp_matlab/subject06_walking15_straight_02.trc																																																																																																																																											
DataRate	CameraRate	NumFrames	NumMarkers	Units	OrigDataRate	OrigDataStartFrame	OrigNumFrames																																																																																																																																							
100	100	5	47	mm	100	1519	218																																																																																																																																							
Frame#	Time	LFHD			RFHD			LBHD			RBHD			C7			T10			CLAV			STRN			RBAK			LSHO			LUPA			LELB			LFRM			LWRA			LWRB			LFIN			RSHO			RUPA			RELB			RFRM			RWRA			RWRB			RFIN			LASI			RASI			LPSI			RPSI			LTHI			LKNE			LTIB			LANK			LHEE			LTOE			RTHI			RKNE			RTIB			RANK			RHEE			RTOE			*39			*40			*41			*42			*43			*44			*45			*46		
		X1	Y1	Z1	X2	Y2	Z2	X3	Y3	Z3	X4	Y4	Z4	X5	Y5	Z5	X6	Y6	Z6	X7	Y7	Z7	X8	Y8	Z8	X9	Y9	Z9	X10	Y10	Z10	X11	Y11	Z11	X12	Y12	Z12	X13	Y13	Z13	X14	Y14	Z14	X15	Y15	Z15	X16	Y16	Z16	X17	Y17	Z17	X18	Y18	Z18	X19	Y19	Z19	X20	Y20	Z20	X21	Y21	Z21	X22	Y22	Z22	X23	Y23	Z23	X24	Y24	Z24	X25	Y25	Z25	X26	Y26	Z26	X27	Y27	Z27	X28	Y28	Z28	X29	Y29	Z29	X30	Y30	Z30	X31	Y31	Z31	X32	Y32	Z32	X33	Y33	Z33	X34	Y34	Z34	X35	Y35	Z35	X36	Y36	Z36	X37	Y37	Z37	X38	Y38	Z38	X39	Y39	Z39	X40	Y40	Z40	X41	Y41	Z41	X42	Y42	Z42	X43	Y43	Z43	X44	Y44	Z44	X45	Y45	Z45	X46	Y46	Z46	X47	Y47	Z47
																																																																																																																																														
28	0.27	-1052.24084	1664.96143	904.52942	-1044.26331	1659.85107	1036.26294	-1185.00708	1607.75977	914.83173	-1174.65955	1607.73682	1044.25684	-1177.54431	1451.11377	971.00635	-1202.9541	1122.31702	978.55859	-1064.16089	1377.86047	972.66101	-1019.80762	1203.54382	966.15387	-1245.39099	1277.64392	1048.22046	-1119.92859	1405.63501	809.9826	-1107.25708	1201.15674	743.50269	-1099.46936	1087.93713	735.42584	-1040.30054	949.4751	715.72546	-945.4621	861.29584	754.49976	-1004.9455	835.84802	724.19879	-940.06775	772.6488	720.48914	-1113.45752	1407.92468	1133.58899	-1159.6438	1211.43909	1221.38147	-1155.90637	1089.20557	1233.31567	-1140.15479	969.84094	1249.30945	-1077.76245	831.85931	1215.8877	-1132.78052	832.50342	1256.48853	-1094.95227	756.59131	1257.2345	-1033.70068	957.4104	870.45007	-1024.36572	973.21912	1089.39941	-1188.9176	987.34375	901.90942	-1177.14612	999.40973	1068.98682	-1105.15613	635.62653	816.74738	-1094.77332	473.05167	833.29181	-1288.32153	323.17047	859.5365	-1417.98999	217.05426	907.00977	-1442.78711	236.98659	959.52142	-1372.84814	77.45327	894.17474	-1047.1261	642.86829	1150.77185	-1024.86792	520.56281	1121.36169	-1053.91199	253.62001	1126.12463	-1064.58252	67.29863	1081.5199	-1104.99463	42.34596	1038.20154	-910.4303	33.63827	1073.24011	-1150.12683	1703.97791	968.31036	NaN	NaN	NaN	NaN	NaN	NaN	NaN	NaN	NaN	NaN	NaN	NaN	NaN	NaN	NaN	NaN	NaN	NaN	NaN	NaN	NaN
29	0.28	-1042.45728	1665.62097	905.73743	-1034.46863	1660.70728	1037.38672	-1175.35779	1608.51294	916.21582	-1164.7948	1608.60962	1045.61206	-1167.8656	1451.9812	972.69159	-1193.71411	1123.30603	980.6153	-1054.51892	1378.62769	974.03973	-1010.49005	1204.29065	967.64099	-1235.60095	1278.86169	1050.74792	-1110.92737	1406.09705	811.4386	-1100.11169	1201.26892	745.33649	-1094.18713	1088.07629	737.15881	-1038.60559	947.78088	716.98981	-946.26764	856.35358	754.25287	-1006.9682	832.92194	725.0849	-944.38495	767.62915	720.01532	-1102.98218	1408.90845	1135.13928	-1147.90747	1212.31091	1223.54077	-1143.05115	1090.11316	1235.75134	-1125.2345	971.05731	1251.40308	-1060.57458	834.51642	1217.06165	-1115.29468	833.92517	1258.14941	-1075.95593	758.87659	1258.79688	-1024.89246	958.32678	871.91254	-1015.19592	973.96069	1090.77124	-1179.87842	988.12207	903.4502	-1167.99756	1000.32568	1070.57996	-1091.17358	636.73553	817.65118	-1076.80579	474.82779	833.71112	-1269.06702	325.83801	861.46576	-1398.11304	218.88623	909.19012	-1423.78772	238.51469	961.79877	-1350.64709	80.21702	896.77783	-1041.95569	642.4646	1151.72693	-1020.42792	520.01422	1122.66113	-1052.05396	253.4265	1126.52881	-1064.50122	67.24565	1081.56787	-1105.06409	42.37437	1038.27881	-910.46606	33.68775	1073.27356	-1140.38684	1704.75598	969.52716	NaN	NaN	NaN	NaN	NaN	NaN	NaN	NaN	NaN	NaN	NaN	NaN	NaN	NaN	NaN	NaN	NaN	NaN	NaN	NaN	NaN
30	0.29	-1032.64868	1666.2312	906.80145	-1024.55078	1661.49011	1038.401	-1165.69543	1609.22168	917.53088	-1154.95422	1609.46216	1046.90186	-1158.30664	1452.82703	974.33514	-1184.52319	1124.28015	982.60107	-1044.97766	1379.3551	975.3446	-1001.6001	1204.98523	969.03003	-1225.90308	1280.03357	1053.10901	-1102.03369	1406.58264	812.86102	-1092.96729	1201.51587	747.06439	-1088.24341	1088.13843	739.44965	-1037.2948	946.45685	717.94427	-947.49628	851.79895	754.10529	-1009.52423	830.55798	725.61139	-949.05853	763.22467	719.5022	-1092.63843	1409.89624	1136.57434	-1136.12561	1213.1604	1225.58875	-1130.14014	1091.04272	1238.10498	-1110.23889	972.35846	1253.41028	-1043.39124	837.18439	1218.1582	-1097.62793	835.44781	1259.75049	-1056.63855	761.14874	1259.62952	-1015.93652	959.14355	873.63373	-1006.07617	974.52893	1092.19727	-1170.82556	988.92102	905.04126	-1158.86133	1001.1308	1072.18958	-1077.10706	638.29578	818.62891	-1058.65222	476.72754	834.37	-1249.30652	327.44067	863.14496	-1377.62878	219.3349	911.2522	-1403.9696	238.66733	963.84009	-1327.50159	81.75848	899.38794	-1035.92822	642.03204	1153.72412	-1016.23889	519.44373	1123.86243	-1050.69031	253.2354	1126.8075	-1064.38965	67.26966	1081.45972	-1105.08813	42.49842	1038.17432	-910.40417	33.65901	1073.28845	-1130.63855	1705.54773	970.65857	NaN	NaN	NaN	NaN	NaN	NaN	NaN	NaN	NaN	NaN	NaN	NaN	NaN	NaN	NaN	NaN	NaN	NaN	NaN	NaN	NaN
31	0.3	-1022.97052	1666.81995	907.69171	-1014.69879	1662.21057	1039.31506	-1156.0946	1609.98059	918.76807	-1144.94336	1610.29761	1047.88623	-1148.74756	1453.64441	975.87775	-1175.41553	1125.15454	984.49414	-1035.65125	1379.93079	976.51276	-992.50079	1205.55225	970.40302	-1216.30017	1281.18018	1055.28333	-1093.2251	1407.16516	814.19867	-1086.07422	1201.87402	748.70752	-1083.24353	1088.46191	741.15088	-1036.02222	945.34479	719.50244	-949.04669	847.71777	753.94006	-1012.65582	828.76373	725.81451	-954.07947	759.33612	719.21143	-1082.38281	1410.86438	1137.87793	-1124.35962	1213.91846	1227.46082	-1117.15186	1091.99097	1240.34436	-1095.12866	973.65759	1255.33398	-1026.17603	839.89819	1219.1416	-1079.88379	837.14099	1261.27576	-1037.65308	763.79041	1261.05774	-1005.98187	960.32715	874.73096	-997.03223	974.97876	1093.73499	-1161.80432	989.76373	906.70404	-1149.76306	1001.84039	1073.8595	-1062.64526	639.71448	819.55609	-1040.53589	478.75925	835.11096	-1229.14404	327.88312	864.56573	-1356.47607	218.42065	913.04962	-1383.35657	237.32874	965.48962	-1303.64331	82.12811	901.862	-1030.30212	641.72028	1154.65039	-1012.22949	518.77063	1124.95264	-1049.90698	253.13664	1127.09766	-1064.29724	67.36186	1081.33179	-1105.03577	42.56668	1037.92236	-910.32056	33.54656	1073.25659	-1120.84302	1706.28711	971.76147	NaN	NaN	NaN	NaN	NaN	NaN	NaN	NaN	NaN	NaN	NaN	NaN	NaN	NaN	NaN	NaN	NaN	NaN	NaN	NaN	NaN
32	0.31	-1013.26624	1667.34912	908.60632	-1004.84705	1662.85681	1040.19116	-1146.48572	1610.68079	919.92102	-1135.30542	1611.1355	1049.25659	-1139.2627	1454.44104	977.37646	-1166.34216	1126.01074	986.33325	-1026.1665	1380.61035	977.63422	-983.40692	1206.10059	971.77045	-1206.771	1282.29358	1057.35535	-1084.45154	1407.74023	815.52753	-1079.43872	1202.2948	750.29504	-1077.94482	1088.90405	742.97754	-1035.07898	944.59045	720.61664	-950.75116	844.073	753.8819	-1015.10681	827.25641	726.87024	-959.20715	755.95013	719.04102	-1072.27637	1411.82056	1139.13611	-1112.58997	1214.80054	1229.37549	-1104.1333	1092.96436	1242.4762	-1079.98267	975.08087	1257.17798	-1008.91284	842.79083	1220.14746	-1062.09424	838.89136	1262.74463	-1018.5318	766.45361	1262.11121	-996.7749	961.37701	876.47223	-988.08441	975.41534	1095.4624	-1152.7915	990.60052	908.36169	-1140.73254	1002.45184	1075.51953	-1048.11865	641.27844	820.48077	-1022.48926	480.86591	836.00726	-1208.81689	327.41177	865.70868	-1334.68689	216.28394	914.69232	-1362.32019	234.7326	966.99768	-1278.09436	81.77543	904.07727	-1025.84839	641.21973	1155.31628	-1008.46478	518.14221	1126.16211	-1049.39294	253.07288	1127.17517	-1064.28345	67.4271	1081.18042	-1105.0481	42.67183	1037.70178	-910.27667	33.45695	1073.27844	-1111.02881	1707.01953	972.76508	NaN	NaN	NaN	NaN	NaN	NaN	NaN	NaN	NaN	NaN	NaN	NaN	NaN	NaN	NaN	NaN	NaN	NaN	NaN	NaN	NaN
